<?xml version="1.0"?>
<svg xmlns="http://www.w3.org/2000/svg" height="512px" viewBox="0 0 384 384" width="512px"><path d="m138.632812 251.976562-12.023437-10.550781-21.113281 24.046875 12.023437 10.550782c20.550781 18.039062 47 27.976562 74.480469 27.976562 27.472656 0 53.945312-9.96875 74.550781-28.054688l12.023438-10.554687-21.109375-24.046875-12.023438 10.550781c-14.761718 12.960938-33.746094 20.105469-53.441406 20.105469-19.703125 0-38.65625-7.113281-53.367188-20.023438zm0 0" fill="#61dafb"/><path d="m192 0c-54.863281 0-106.558594 23.265625-143.089844 64h-48.910156v144c.785156 9.359375 2.921875 18.625 5.054688 27.632812.59375 2.558594 1.28125 5.207032 1.960937 7.765626 2.015625 7.585937 4.640625 15.128906 8.03125 23.144531 1.023437 2.394531 2.128906 4.785156 3.335937 7.359375l.722657 1.503906c.871093 1.832031 1.757812 3.683594 2.695312 5.488281.886719 1.707031 1.816407 3.371094 2.757813 5.058594l1.097656 1.96875c17.183594 29.832031 42.230469 54.582031 73.070312 71.910156 1.832032.992188 3.664063 1.984375 5.578126 2.976563l6.40625 3.128906c1.191406.589844 2.394531 1.167969 2.898437 1.351562 2.015625.917969 4.132813 1.839844 6.085937 2.597657 4.914063 1.984375 9.960938 3.808593 15 5.433593l.96875.296876c2.34375.703124 4.640626 1.382812 6.984376 1.949218 1.296874.371094 2.664062.691406 4.183593 1.042969 2.265625.589844 4.640625 1.167969 6.167969 1.414063 2.535156.570312 5.070312 1.03125 7.089844 1.328124 2.015625.367188 4.132812.648438 5.613281.832032.800781.136718 1.609375.25 2.457031.320312 1.824219.289063 3.601563.472656 5.414063.648438 2.816406.253906 5.625.433594 8.496093.601562 3.257813.15625 6.59375.246094 9.929688.246094s6.671875-.089844 9.984375-.273438c2.816406-.167968 5.625-.335937 8.496094-.597656 1.757812-.167968 3.511719-.34375 5.328125-.640625.792968-.054687 1.449218-.152343 1.910156-.230469 2.097656-.273437 4.183594-.554687 5.664062-.832031 2.539063-.378906 5.074219-.851562 6.890626-1.273437 2.261718-.390625 4.628906-.96875 7.160156-1.617188 1.292968-.304687 2.628906-.625 3.917968-.984375 2.351563-.566406 4.679688-1.261719 7.710938-2.175781 5.21875-1.589844 10.425781-3.472656 15.097656-5.445312 2.105469-.824219 4.214844-1.738282 5.511719-2.355469 1.214844-.484375 2.441406-1.070313 3.0625-1.398438l7.167969-3.496093c1.707031-.886719 3.355468-1.785157 4.992187-2.671876l1.035157-.558593c30.191406-16.976563 55.230468-41.722657 72.535156-71.769531l.925781-1.664063c.96875-1.71875 1.921875-3.414063 2.824219-5.167969.882812-1.695312 1.722656-3.441406 2.539062-5.167968l1.039063-2.167969c1.078125-2.335938 2.160156-4.664063 3.183593-7.0625 3.367188-7.96875 5.992188-15.511719 8.015626-23.121094.671874-2.535156 1.351562-5.167969 1.9375-7.664063 2.757812-11.59375 4.566406-23.566406 5.070312-35.664062v-136h-48.902344c-36.539062-40.734375-88.234375-64-143.097656-64zm0 32c35.0625 0 68.59375 11.375 96.0625 32h-192.117188c27.460938-20.625 61-32 96.054688-32zm155.785156 196.34375c-.527344 2.257812-1.136718 4.59375-1.722656 6.808594-1.621094 6.105468-3.773438 12.261718-6.519531 18.785156-.878907 2.046875-1.832031 4.09375-2.734375 6.046875l-.914063 1.902344c-.6875 1.425781-1.375 2.875-2.101562 4.28125-.738281 1.417969-1.503907 2.800781-2.296875 4.191406l-.878906 1.578125c-14.3125 24.855469-35.183594 45.476562-60.144532 59.503906l-.808594.4375c-1.574218.847656-3.160156 1.707032-4.800781 2.5625l-5.863281 2.847656c-.390625.191407-.777344.40625-1.871094.871094-1.503906.679688-3.074218 1.367188-5.015625 2.136719-4.042969 1.703125-8.203125 3.207031-13.035156 4.679687-1.820313.542969-3.589844 1.09375-5.429687 1.519532l-.90625.238281c-.839844.25-1.726563.449219-2.582032.648437l-1.097656.257813c-1.40625.367187-2.878906.75-5.007812 1.136719-1.789063.398437-3.566407.726562-5.878907 1.078125-1.480469.273437-3.03125.464843-4.566406.664062l-2.394531.296875c-1.292969.238282-2.527344.335938-3.710938.449219-2.472656.222656-4.9375.375-7.34375.511719-5.34375.292968-11.03125.292968-16.25 0-2.46875-.144532-4.933594-.296875-7.34375-.511719-1.238281-.121094-2.476562-.21875-3.765625-.457031l-2.199219-.257813s-.042968-.007812-.136718-.023437c-1.5625-.199219-3.128906-.398438-5.144532-.757813-1.785156-.265625-3.566406-.601562-6.082031-1.136719-1.414062-.25-2.886719-.632812-4.300781-1l-1.066406-.257812c-.855469-.199219-1.75-.398438-2.597656-.65625l-.914063-.238281c-1.832031-.425781-3.605469-.976563-5.839844-1.648438-4.351562-1.398437-8.632812-2.953125-13-4.710937-1.558593-.617188-3.128906-1.296875-5.3125-2.273438-.40625-.167968-.816406-.382812-1.75-.839844l-5.304687-2.582031c-1.769532-.921875-3.464844-1.839843-5.367188-2.867187-25.175781-14.160156-46.058594-34.78125-60.25-59.40625l-1.039062-1.863282c-.777344-1.386718-1.542969-2.746093-2.273438-4.152343-.773437-1.488281-1.503906-3.015625-2.214844-4.519531l-.671874-1.417969c-.976563-2.09375-1.945313-4.175781-2.816407-6.214844-2.777343-6.550781-4.917969-12.71875-6.550781-18.832031-.601562-2.242188-1.191406-4.550782-1.738281-6.855469-1.421875-6.007813-2.496094-12.144531-3.191407-18.34375l142.960938 15.925781v-57.878906h32v58.886719l143.625-23.941407c-.585938 8.597657-1.871094 17.101563-3.839844 25.398438zm4.214844-60.34375-.222656 2.425781-111.777344 18.6875v-53.113281h-96v54.121094l-112-12.425782v-81.695312h320zm0 0" fill="#61dafb"/></svg>
